<svg width="24" height="24" viewBox="0 0 24 24" xmlns="http://www.w3.org/2000/svg"><title>Icons / Menu Icons / Active / Adult</title><desc>Created with Sketch.</desc><g fill="none"><path d="M0 0h24v24h-24z"/><path d="M16.75 5.739v.696c0 .195-.159.348-.354.348-.195 0-.354-.152-.354-.348v-.696h-7.083v.696c0 .195-.159.348-.354.348-.195 0-.354-.152-.354-.348v-.696h-2.833c-.39 0-.708.314-.708.696v12.522c0 .383.318.696.708.696h14.155c.397 0 .72-.312.72-.703v-12.515c0-.382-.318-.696-.708-.696h-2.833zm0-.696h2.833c.781 0 1.417.626 1.417 1.391v12.522c-.004.765-.637 1.385-1.417 1.391h-14.167c-.781 0-1.417-.626-1.417-1.391v-12.522c0-.765.635-1.391 1.417-1.391h2.833v-.696c0-.194.159-.348.354-.348.196 0 .354.154.354.348v.696h7.083v-.696c0-.194.159-.348.354-.348.195 0 .354.154.354.348v.696zm1.417 3.478h-11.333c-.196 0-.354-.153-.354-.348 0-.194.159-.348.354-.348h11.333c.195 0 .354.154.354.348 0 .195-.159.348-.354.348zm-9.208 2.087h-2.125c-.196 0-.354-.153-.354-.348 0-.194.159-.348.354-.348h2.125c.195 0 .354.154.354.348 0 .195-.159.348-.354.348zm4.958 0h-2.833c-.195 0-.354-.153-.354-.348 0-.194.159-.348.354-.348h2.833c.195 0 .354.154.354.348 0 .195-.159.348-.354.348zm4.25 0h-2.125c-.196 0-.354-.153-.354-.348 0-.194.159-.348.354-.348h2.125c.195 0 .354.154.354.348 0 .195-.159.348-.354.348zm-9.208 2.087h-2.125c-.196 0-.354-.153-.354-.348 0-.194.159-.348.354-.348h2.125c.195 0 .354.154.354.348 0 .195-.159.348-.354.348zm4.958 0h-2.833c-.195 0-.354-.153-.354-.348 0-.194.159-.348.354-.348h2.833c.195 0 .354.154.354.348 0 .195-.159.348-.354.348zm4.25 0h-2.125c-.196 0-.354-.153-.354-.348 0-.194.159-.348.354-.348h2.125c.195 0 .354.154.354.348 0 .195-.159.348-.354.348zm-9.208 2.087h-2.125c-.196 0-.354-.153-.354-.348 0-.194.159-.348.354-.348h2.125c.195 0 .354.154.354.348 0 .195-.159.348-.354.348zm4.958 0h-2.833c-.195 0-.354-.153-.354-.348 0-.194.159-.348.354-.348h2.833c.195 0 .354.154.354.348 0 .195-.159.348-.354.348zm4.25 0h-2.125c-.196 0-.354-.153-.354-.348 0-.194.159-.348.354-.348h2.125c.195 0 .354.154.354.348 0 .195-.159.348-.354.348zm-9.208 2.087h-2.125c-.196 0-.354-.153-.354-.348 0-.194.159-.348.354-.348h2.125c.195 0 .354.154.354.348 0 .195-.159.348-.354.348zm4.958 0h-2.833c-.195 0-.354-.153-.354-.348 0-.194.159-.348.354-.348h2.833c.195 0 .354.154.354.348 0 .195-.159.348-.354.348zm4.25 0h-2.125c-.196 0-.354-.153-.354-.348 0-.194.159-.348.354-.348h2.125c.195 0 .354.154.354.348 0 .195-.159.348-.354.348z" fill="#06507F"/></g></svg>