<svg width="24" height="24" viewBox="0 0 24 24" xmlns="http://www.w3.org/2000/svg"><title>Icons / Menu Icons / Active / Comments</title><desc>Created with Sketch.</desc><g fill="none"><path d="M0 0h24v24h-24z"/><path d="M9.652 6.783c-3.237 0-5.87 1.738-5.87 3.883 0 1.353 1.111 2.629 2.897 3.334.097.038.175.109.216.203.041.102.043.211.004.306-.232.578-.577 1.174-.913 1.651.969-.188 1.829-.697 2.566-1.527.082-.094.205-.14.326-.133.255.023.512.039.774.039 3.236 0 5.87-1.737 5.87-3.873 0-2.144-2.633-3.883-5.87-3.883zm5.013.818l.16-.035c3.404 0 6.174 1.949 6.174 4.335 0 1.463-1.054 2.825-2.777 3.623.341.704.825 1.354 1.085 1.621.112.109.145.282.085.422-.06.149-.203.243-.362.243-1.395 0-2.612-.54-3.62-1.596-1.589.108-3.276-.241-4.532-.972-.398.052-.808.08-1.228.08-.219 0-.434-.008-.647-.023-1.085 1.15-2.399 1.73-3.907 1.73-.158 0-.301-.093-.362-.242-.06-.141-.027-.314.085-.423.297-.298.825-1.018 1.197-1.793-1.873-.86-3.019-2.324-3.019-3.904 0-2.576 2.984-4.665 6.652-4.665 1.998 0 3.793.62 5.013 1.601zm.778.77c.547.677.86 1.46.86 2.294 0 1.948-1.719 3.62-4.15 4.314 1.029.383 2.238.538 3.382.437.123-.008.244.039.326.132.659.736 1.424 1.206 2.282 1.386-.298-.431-.598-.956-.803-1.472-.039-.094-.038-.203.004-.297.041-.102.119-.171.216-.211 1.638-.642 2.656-1.816 2.656-3.052 0-1.819-2.09-3.327-4.773-3.53z" fill="#06507F"/></g></svg>