<svg width="24" height="24" viewBox="0 0 24 24" xmlns="http://www.w3.org/2000/svg"><title>Icons / Menu Icons / Active / Factories</title><desc>Created with Sketch.</desc><g fill="none"><path d="M0 0h24v24h-24z"/><path d="M4.438 19.109h4.813v-1.823l-4.813-2.742v4.565zm10.656.687h-11c-.19 0-.344-.151-.344-.344v-5.499c0-.124.065-.234.171-.296.106-.062.236-.062.343 0l4.986 2.843v-2.546c0-.124.065-.234.171-.296.106-.062.236-.062.343 0l5.037 2.872.776-8.791c.016-.178.164-.316.342-.316h2.75c.178 0 .327.138.342.316l1.023 11.591.023.124c0 .193-.154.344-.344.344h-4.621zm-.359-2.518l-4.798-2.734v4.565h4.636l.162-1.831zm.528 1.831h4.062l-.971-11.001h-2.12l-.971 11.001zm1.589-12.485l-.153-.035c-.631-.33-.349-1.073-.162-1.561.075-.192.231-.605.178-.694-.168-.09-.241-.303-.153-.468.088-.172.287-.241.456-.151.631.33.349 1.065.162 1.56-.075.192-.23.598-.178.694.168.083.241.296.154.468-.063.117-.18.186-.303.186zm1.455.006l-.166-.041c-.199-.103-.325-.247-.372-.433-.082-.302.097-.584.241-.811.056-.089.149-.234.154-.289-.168-.089-.245-.289-.157-.454.088-.165.283-.22.452-.131.199.103.325.248.372.426.082.31-.097.591-.241.818-.056.083-.149.234-.154.289.168.083.245.282.157.448-.06.117-.169.178-.286.178z" fill="#06507F"/></g></svg>