<svg width="24" height="24" viewBox="0 0 24 24" xmlns="http://www.w3.org/2000/svg"><title>Icons / Menu Icons / Active / Messages</title><desc>Created with Sketch.</desc><g fill="none"><path d="M0 0h24v24h-24z"/><path d="M3 6.378l.023-.131.072-.121c.082-.094.201-.136.316-.125h17.178c.117-.011.236.032.319.128.063.073.093.165.092.255v11.242c0 .21-.168.375-.375.375h-17.25c-.207 0-.375-.165-.375-.375v-11.248zm.75.824v10.049h16.5v-10.05l-6.533 5.678c-.473.412-1.096.622-1.718.622-.622 0-1.243-.209-1.717-.622l-6.532-5.677zm.629-.451l6.395 5.566c.664.577 1.787.577 2.451 0l6.395-5.566h-15.241z" fill="#06507F"/></g></svg>