<svg width="24" height="24" viewBox="0 0 24 24" xmlns="http://www.w3.org/2000/svg"><title>Icons / Menu Icons / Active / Reports</title><desc>Created with Sketch.</desc><g fill="none"><path d="M0 0h24v24h-24z"/><path d="M8 5.25v-.42c0-.975.608-1.08.869-1.08h1.574c.112-.682.553-.75 1.003-.75h.094c.593 0 .85.196.918.75h1.567c.52 0 1.475.413 1.475 1.08v.42h2.578c.233 0 .422.166.422.375v15c0 .21-.189.375-.422.375h-12.656c-.233 0-.422-.165-.422-.375v-15c0-.209.189-.375.422-.375h2.578zm.75 0h6v-.42c-.035-.104-.448-.33-.725-.33h-1.922c-.207 0-.375-.165-.375-.375 0-.209-.013-.322-.025-.375h-.257l-.251.015c.006.007-.03.09-.03.36 0 .21-.167.375-.375.375h-1.921c-.047 0-.119 0-.119.33v.42zm-2.906 15h11.813v-14.25h-11.813v14.25zm8.606-9h-5.4c-.373 0-.675-.165-.675-.375s.302-.375.675-.375h5.4c.373 0 .675.165.675.375s-.302.375-.675.375zm0 2.25h-5.4c-.373 0-.675-.165-.675-.375s.302-.375.675-.375h5.4c.373 0 .675.165.675.375s-.302.375-.675.375zm0 2.25h-5.4c-.373 0-.675-.165-.675-.375s.302-.375.675-.375h5.4c.373 0 .675.165.675.375s-.302.375-.675.375z" fill="#06507F"/></g></svg>