<svg width="24" height="24" viewBox="0 0 24 24" xmlns="http://www.w3.org/2000/svg"><title>Icons / Menu Icons / Active / Supplies</title><desc>Created with Sketch.</desc><g fill="none"><path d="M0 0h24v24h-24z"/><path d="M14.504 15.32l.084.205 5.45-1.173c.21-.045.413.103.455.33.042.227-.095.448-.304.493l-5.397 1.161c.26 1.922-1.018 3.738-2.946 4.121-2.004.398-3.951-.904-4.349-2.908-.398-2.004.904-3.951 2.908-4.349l.293-.046-.341.049c-.144.028-.284.066-.42.11l-1.72-8.468c-.106-.524-.602-.877-1.134-.83.007.185-.123.353-.314.39-.129.025-.255-.015-.344-.098-.101-.093-.247-.123-.384-.097l-1.571.305c-.239.046-.47-.13-.469-.382.001-.183.143-.337.326-.373l1.561-.303c.136-.027.26-.109.317-.233.05-.109.151-.194.28-.219.196-.038.385.074.446.255.957-.127 1.864.495 2.055 1.433l1.718 8.458c.178-.021.354-.028.529-.023l-1.039-5.187c-.03-.15.068-.296.22-.326l7.707-1.518c.151-.03.298.068.328.218l1.531 7.643c.03.15-.068.296-.22.326l-3.339.658-1.309.258-.607.12zm-.277-.51l.776-.153-.207-1.032 1.589-.313.207 1.032 2.786-.549-1.422-7.099-2.786.549.207 1.032-1.589.313-.207-1.032-2.786.549 1.019 5.086c.988.188 1.864.774 2.413 1.618zm-3.681-.924c-1.625.323-2.68 1.901-2.358 3.526.323 1.625 1.901 2.68 3.526 2.358 1.625-.323 2.68-1.901 2.358-3.526-.323-1.625-1.901-2.68-3.526-2.358zm.779 3.925c-.541.107-1.068-.245-1.175-.786-.107-.541.245-1.068.786-1.176.541-.107 1.068.245 1.175.786.107.541-.245 1.068-.786 1.176z" fill="#06507F" fill-rule="nonzero"/></g></svg>