<svg width="24" height="24" viewBox="0 0 24 24" xmlns="http://www.w3.org/2000/svg"><title>Icons / Menu Icons / Active / Support</title><desc>Created with Sketch.</desc><g fill="none"><path d="M0 0h24v24h-24z"/><path d="M12 20c-4.411 0-8-3.587-8-8s3.589-8 8-8 8 3.587 8 8-3.589 8-8 8zm0-15.333c-4.043 0-7.333 3.286-7.333 7.333 0 4.041 3.29 7.334 7.333 7.334 4.044 0 7.333-3.293 7.333-7.334 0-4.047-3.289-7.333-7.333-7.333zm0 5.331c-.827 0-1.5-.674-1.5-1.496 0-.83.673-1.502 1.5-1.502s1.5.672 1.5 1.502c0 .823-.673 1.496-1.5 1.496zm.002-2.249c-.415 0-.752.336-.752.754 0 .411.337.748.752.748s.752-.336.752-.748c0-.419-.337-.754-.752-.754zm-.752 8.5v-4.5h1.496v4.5h-1.496zm1.875.75h-2.25c-.207 0-.375-.166-.375-.376v-5.249c0-.211.168-.376.375-.376h2.25c.207 0 .375.165.375.376v5.249c0 .21-.168.376-.375.376z" fill="#06507F"/></g></svg>