<svg width="24" height="24" viewBox="0 0 24 24" xmlns="http://www.w3.org/2000/svg"><title>Icons / Menu Icons / Active / Tasks</title><desc>Created with Sketch.</desc><g fill="none"><path d="M0 0h24v24h-24z"/><path d="M19.792 5.335c0-.382-.318-.696-.708-.696h-14.167c-.39 0-.708.314-.708.696v4.522c0 .383.318.696.708.696h14.155c.397 0 .72-.312.72-.703v-4.515zm.708 0v4.531c-.009.761-.64 1.376-1.417 1.382h-14.167c-.778 0-1.411-.621-1.417-1.382v-4.531c0-.765.635-1.391 1.417-1.391h14.167c.781 0 1.417.626 1.417 1.391zm-8.242 3.774h-2.125c-.196 0-.354-.153-.354-.348 0-.194.159-.348.354-.348h2.125c.196 0 .354.154.354.348 0 .195-.159.348-.354.348zm1.275 0c-.196 0-.354-.153-.354-.348 0-.194.159-.348.354-.348h3.125c.195 0 .354.154.354.348 0 .195-.159.348-.354.348h-3.125zm4.725-2h-8.125c-.196 0-.354-.153-.354-.348 0-.194.159-.348.354-.348h8.125c.195 0 .354.154.354.348 0 .195-.159.348-.354.348z" id="ico" fill="#06507F"/><path d="M7.103 8.887c-.138.126-.351.119-.485-.015l-1.167-1.167c-.138-.138-.142-.359-.004-.496.138-.138.358-.134.496.004l.93.93 1.412-1.412c.138-.138.359-.142.496-.004.138.138.134.358-.004.496l-1.622 1.622-.051.043z" fill="#06507F"/><path d="M19.792 14.035c0-.382-.318-.696-.708-.696h-14.167c-.39 0-.708.314-.708.696v4.522c0 .383.318.696.708.696h14.155c.397 0 .72-.312.72-.703v-4.515zm.708 0v4.531c-.009.761-.64 1.376-1.417 1.382h-14.167c-.778 0-1.411-.621-1.417-1.382v-4.531c0-.765.635-1.391 1.417-1.391h14.167c.781 0 1.417.626 1.417 1.391zm-8.242 3.774h-2.125c-.196 0-.354-.153-.354-.348 0-.194.159-.348.354-.348h2.125c.196 0 .354.154.354.348 0 .195-.159.348-.354.348zm6-2h-8.125c-.196 0-.354-.153-.354-.348 0-.194.159-.348.354-.348h8.125c.195 0 .354.154.354.348 0 .195-.159.348-.354.348z" fill="#06507F"/><path d="M6.3 15.45c-.083 0-.15.067-.15.15v1.7c0 .083.067.15.15.15h1.7c.083 0 .15-.067.15-.15v-1.7c0-.083-.067-.15-.15-.15h-1.7z" stroke="#06507F" stroke-width=".7" fill-rule="nonzero"/></g></svg>