<svg width="24" height="24" viewBox="0 0 24 24" xmlns="http://www.w3.org/2000/svg"><title>Icons / Menu Icons / Active / Users</title><desc>Created with Sketch.</desc><g fill="none"><path d="M0 0h24v24h-24z"/><path d="M11.544 15.894l-.674-1.073c-.491.329-1.049.525-1.645.525-.518 0-1.011-.148-1.459-.402l-.724.989 2.22 1.388 2.282-1.426zm.647.468l-1.265 2.846c-.045.101-.138.176-.247.196l-.062.007c-.089 0-.175-.034-.239-.102l-1.115-1.115-1.115 1.115c-.064.068-.15.102-.24.102l-.062-.007c-.11-.02-.203-.095-.248-.196l-1.265-2.846h-.797c-1.737 0-2.859 1.064-2.859 2.71v.677c0 .19-.152.339-.339.339-.187 0-.339-.149-.339-.339v-.677c0-2.026 1.421-3.387 3.537-3.387h.845l.828-1.128c-.974-.808-1.643-2.115-1.736-3.324-.432-.142-.763-.535-.763-.969v-1.354c0-.42.41-.732.677-.881v-1.152c0-1.281 1.026-2.331 2.301-2.371.272-.109 1.345-.508 2.441-.508 1.748 0 2.71 1.023 2.71 2.879v1.043c.677.135.677.677.677.989v1.354c0 .454-.255.826-.631.962-.08 1.145-.64 2.353-1.482 3.163l.813 1.295h.828c2.2 0 3.859 1.456 3.859 3.387v.677c0 .19-.152.339-.339.339-.187 0-.339-.149-.339-.339v-.677c0-1.782-1.601-2.71-3.182-2.71h-.853zm4.153-1.759l-.307.005c-.865 0-1.611-.176-2.288-.366-.18-.047-.286-.237-.235-.413.05-.183.236-.285.417-.237.631.176 1.324.339 2.107.339 3.311 0 4.617-1.618 5.03-2.33-.304-.514-1.139-1.964-1.295-2.628-.27-1.138-1.173-3.794-3.735-3.794-.509 0-.994.115-1.442.339-.169.088-.372.021-.456-.149-.084-.162-.017-.366.15-.454.543-.271 1.132-.413 1.748-.413 2.145 0 3.746 1.572 4.394 4.316.133.562.994 2.065 1.315 2.601.06.095.065.224.013.325-.769 1.538-2.449 2.544-4.604 2.801l1.221 1.535c1.92.047 4.625.86 4.625 2.995v.677c0 .19-.152.339-.339.339-.187 0-.339-.149-.339-.339v-.677c0-1.599-2.405-2.317-4.113-2.317-.103 0-.201-.047-.265-.129l-1.571-1.978-.03-.045zm-6.215-9.926c-1.099 0-2.227.474-2.238.482l-.133.026c-.933 0-1.694.759-1.694 1.694v1.354c0 .135-.079.258-.2.312-.241.108-.464.291-.478.366v1.354c0 .17.209.339.413.339.188 0 .339.149.339.339 0 1.679 1.424 3.726 3.086 3.726 1.658 0 2.992-2.04 2.992-3.726 0-.19.152-.339.339-.339.195 0 .282-.169.282-.339v-1.354c0-.339 0-.339-.339-.339-.187 0-.339-.15-.339-.339v-1.354c0-1.484-.665-2.202-2.032-2.202zm-2.817 12.221l.705 1.584.705-.704-1.41-.881zm2.49.881l.705.704.705-1.584-1.41.881z" fill="#06507F"/></g></svg>